<mxfile host="app.diagrams.net" modified="2021-09-23T15:55:55.585Z" agent="5.0 (Macintosh; Intel Mac OS X 10_15_7) AppleWebKit/537.36 (KHTML, like Gecko) Chrome/91.0.4472.166 Safari/537.36" etag="ojdE-DMrqp0gw4oesM-A" version="15.3.0" type="github">
  <diagram id="C5RBs43oDa-KdzZeNtuy" name="Page-1">
    <mxGraphModel dx="911" dy="554" grid="1" gridSize="10" guides="1" tooltips="1" connect="1" arrows="1" fold="1" page="1" pageScale="1" pageWidth="827" pageHeight="1169" math="0" shadow="0">
      <root>
        <mxCell id="WIyWlLk6GJQsqaUBKTNV-0" />
        <mxCell id="WIyWlLk6GJQsqaUBKTNV-1" parent="WIyWlLk6GJQsqaUBKTNV-0" />
        <mxCell id="tXSJf13Bgg6jvkACeqMB-20" value="No" style="edgeStyle=orthogonalEdgeStyle;rounded=0;orthogonalLoop=1;jettySize=auto;html=1;" edge="1" parent="WIyWlLk6GJQsqaUBKTNV-1" source="tXSJf13Bgg6jvkACeqMB-12" target="tXSJf13Bgg6jvkACeqMB-19">
          <mxGeometry relative="1" as="geometry" />
        </mxCell>
        <mxCell id="tXSJf13Bgg6jvkACeqMB-22" value="Yes" style="edgeStyle=orthogonalEdgeStyle;rounded=0;orthogonalLoop=1;jettySize=auto;html=1;" edge="1" parent="WIyWlLk6GJQsqaUBKTNV-1" source="tXSJf13Bgg6jvkACeqMB-12" target="tXSJf13Bgg6jvkACeqMB-21">
          <mxGeometry relative="1" as="geometry" />
        </mxCell>
        <mxCell id="tXSJf13Bgg6jvkACeqMB-12" value="rsSFR passed?" style="rhombus;whiteSpace=wrap;html=1;" vertex="1" parent="WIyWlLk6GJQsqaUBKTNV-1">
          <mxGeometry x="140" y="130" width="80" height="80" as="geometry" />
        </mxCell>
        <mxCell id="tXSJf13Bgg6jvkACeqMB-18" value="" style="edgeStyle=orthogonalEdgeStyle;rounded=0;orthogonalLoop=1;jettySize=auto;html=1;" edge="1" parent="WIyWlLk6GJQsqaUBKTNV-1" source="tXSJf13Bgg6jvkACeqMB-17" target="tXSJf13Bgg6jvkACeqMB-12">
          <mxGeometry relative="1" as="geometry" />
        </mxCell>
        <mxCell id="tXSJf13Bgg6jvkACeqMB-17" value="update_sSFR" style="rounded=0;whiteSpace=wrap;html=1;" vertex="1" parent="WIyWlLk6GJQsqaUBKTNV-1">
          <mxGeometry x="120" y="20" width="120" height="60" as="geometry" />
        </mxCell>
        <mxCell id="tXSJf13Bgg6jvkACeqMB-31" value="" style="edgeStyle=orthogonalEdgeStyle;rounded=0;orthogonalLoop=1;jettySize=auto;html=1;" edge="1" parent="WIyWlLk6GJQsqaUBKTNV-1" source="tXSJf13Bgg6jvkACeqMB-19" target="tXSJf13Bgg6jvkACeqMB-30">
          <mxGeometry relative="1" as="geometry" />
        </mxCell>
        <mxCell id="tXSJf13Bgg6jvkACeqMB-19" value="update_rsSFR" style="whiteSpace=wrap;html=1;" vertex="1" parent="WIyWlLk6GJQsqaUBKTNV-1">
          <mxGeometry x="280" y="140" width="120" height="60" as="geometry" />
        </mxCell>
        <mxCell id="tXSJf13Bgg6jvkACeqMB-21" value="compute_sSFR" style="whiteSpace=wrap;html=1;" vertex="1" parent="WIyWlLk6GJQsqaUBKTNV-1">
          <mxGeometry x="120" y="280" width="120" height="60" as="geometry" />
        </mxCell>
        <mxCell id="tXSJf13Bgg6jvkACeqMB-33" value="" style="edgeStyle=orthogonalEdgeStyle;rounded=0;orthogonalLoop=1;jettySize=auto;html=1;" edge="1" parent="WIyWlLk6GJQsqaUBKTNV-1" source="tXSJf13Bgg6jvkACeqMB-30" target="tXSJf13Bgg6jvkACeqMB-21">
          <mxGeometry relative="1" as="geometry" />
        </mxCell>
        <mxCell id="tXSJf13Bgg6jvkACeqMB-30" value="compute_rsSFR" style="whiteSpace=wrap;html=1;" vertex="1" parent="WIyWlLk6GJQsqaUBKTNV-1">
          <mxGeometry x="280" y="280" width="120" height="60" as="geometry" />
        </mxCell>
      </root>
    </mxGraphModel>
  </diagram>
</mxfile>
